<svg width="38" height="46" viewBox="0 0 38 46" fill="none" xmlns="http://www.w3.org/2000/svg">
<g id="Group 17">
<path id="Vector" d="M0.390625 14.5049C0.390625 12.9376 0.390625 11.3704 0.390625 9.80309C0.390625 8.81049 0.747614 8.27936 1.66185 7.89625C6.53779 5.86751 11.4137 3.84748 16.2897 1.81874C16.934 1.54882 17.587 1.31373 18.2139 1.01769C18.8757 0.704238 19.5026 0.730358 20.173 1.00898C24.1695 2.68944 28.1835 4.34378 32.1887 6.00683C33.6428 6.60761 35.0969 7.2171 36.5597 7.81789C37.6829 8.27936 37.9963 8.74954 37.9963 9.95982C37.9963 12.6851 38.0224 15.4191 37.9876 18.1444C37.8831 26.8602 34.6093 34.1654 28.1661 40.0252C25.7542 42.2194 22.9941 43.8912 19.9902 45.145C19.4677 45.3626 18.9627 45.3888 18.4316 45.1624C10.0729 41.5577 4.46552 35.4105 1.67056 26.7209C0.791149 23.9869 0.399332 21.1658 0.390625 18.2925C0.390625 17.0299 0.390625 15.7674 0.390625 14.5049ZM34.4526 15.2102C34.4787 15.2102 34.5048 15.2102 34.5309 15.2102C34.5309 13.878 34.5222 12.5371 34.5396 11.2049C34.5483 10.8654 34.4526 10.7086 34.1217 10.5693C29.2719 8.56669 24.4221 6.54666 19.5722 4.54404C19.3633 4.45697 19.0498 4.45697 18.8408 4.54404C13.9736 6.54666 9.11508 8.5754 4.25655 10.5867C3.96922 10.6999 3.86473 10.8392 3.87344 11.1527C3.89085 13.5471 3.8212 15.9416 3.89956 18.336C3.96051 19.9816 4.0737 21.6447 4.41328 23.2468C6.22434 31.71 11.0916 37.7962 18.8757 41.5577C19.1282 41.6796 19.3197 41.6622 19.5635 41.549C24.5614 39.2155 28.4447 35.663 31.1787 30.8741C33.1117 27.4871 34.2349 23.8475 34.4439 19.9555C34.5222 18.3795 34.4526 16.7948 34.4526 15.2102Z" fill="#FA4A6F"/>
<path id="Vector_2" d="M17.2986 24.1961C17.4553 23.9697 17.5336 23.8217 17.6381 23.7085C19.9803 21.3576 22.3312 19.0067 24.6821 16.6645C25.5528 15.7938 26.8763 15.9244 27.4684 16.9344C27.8428 17.57 27.8167 18.2056 27.3987 18.8151C27.2768 18.9893 27.1201 19.146 26.9634 19.3027C24.2119 22.0541 21.4692 24.8056 18.7178 27.5483C17.7339 28.5322 16.7935 28.5409 15.8184 27.5657C14.2772 26.0245 12.7361 24.4921 11.2036 22.951C10.7073 22.4459 10.5158 21.8539 10.7334 21.1573C10.9424 20.4869 11.4213 20.0863 12.0917 19.9557C12.7448 19.8251 13.2759 20.095 13.7374 20.5478C14.7822 21.5927 15.8271 22.6375 16.8719 23.6911C17.0025 23.8042 17.0896 23.9348 17.2986 24.1961Z" fill="#FA4A6F"/>
</g>
</svg>
