<svg width="129" height="19" viewBox="0 0 129 19" fill="none" xmlns="http://www.w3.org/2000/svg">
<g id="Group 37">
<path id="Vector" d="M9.95301 0.217285C10.4245 0.250962 10.7388 0.486704 10.9222 0.920767C11.592 2.49986 12.273 4.07521 12.9353 5.65804C13.0401 5.90501 13.1711 5.9761 13.4255 5.99481C14.3124 6.05843 15.1992 6.15197 16.086 6.2343C16.8381 6.30165 17.5865 6.36901 18.3387 6.43636C18.4809 6.45133 18.6268 6.45507 18.7652 6.49249C19.1507 6.59726 19.3976 6.84797 19.4949 7.24087C19.5922 7.645 19.4725 7.98552 19.1694 8.25119C17.9682 9.31016 16.7633 10.3654 15.5584 11.4243C15.4723 11.4992 15.3975 11.589 15.304 11.6451C15.0308 11.806 15.0121 12.0156 15.0832 12.3112C15.4798 13.9689 15.8503 15.6303 16.2245 17.2917C16.3218 17.7295 16.2132 18.1149 15.8391 18.3843C15.4686 18.6537 15.0757 18.65 14.6828 18.418C13.1598 17.5087 11.6369 16.5994 10.1177 15.6826C9.99417 15.6078 9.90811 15.6078 9.78463 15.6826C8.27663 16.5919 6.76489 17.4937 5.24942 18.3993C4.71432 18.7173 4.13432 18.6088 3.81626 18.1336C3.64039 17.8754 3.60671 17.591 3.67407 17.2954C4.06697 15.5741 4.45613 13.8528 4.85651 12.1353C4.89393 11.9669 4.85651 11.8696 4.72929 11.7574C3.39716 10.6011 2.07252 9.43738 0.747884 8.2699C0.411111 7.97429 0.283886 7.60384 0.422337 7.17726C0.549562 6.75442 0.848916 6.50746 1.29046 6.4663C2.22594 6.37649 3.16517 6.29417 4.10065 6.2081C4.95755 6.12952 5.81445 6.05094 6.6676 5.9761C6.79483 5.96488 6.84347 5.90127 6.89212 5.79649C7.58438 4.1725 8.28037 2.5485 8.96889 0.924508C9.15598 0.482962 9.47404 0.243479 9.95301 0.217285Z" fill="#FA4A6F"/>
<path id="Vector_2" d="M37.1132 0.217285C37.5846 0.250962 37.899 0.486704 38.0823 0.920767C38.7521 2.49986 39.4332 4.07521 40.0955 5.65804C40.2003 5.90501 40.3312 5.9761 40.5857 5.99481C41.4725 6.05843 42.3593 6.15197 43.2462 6.2343C43.9983 6.30165 44.7467 6.36901 45.4988 6.43636C45.641 6.45133 45.7869 6.45507 45.9254 6.49249C46.3108 6.59726 46.5578 6.84797 46.6551 7.24087C46.7524 7.645 46.6326 7.98552 46.3295 8.25119C45.1284 9.31016 43.9235 10.3654 42.7186 11.4243C42.6325 11.4992 42.5577 11.589 42.4641 11.6451C42.191 11.806 42.1722 12.0156 42.2433 12.3112C42.64 13.9689 43.0104 15.6303 43.3846 17.2917C43.4819 17.7295 43.3734 18.1149 42.9992 18.3843C42.6288 18.6537 42.2359 18.65 41.843 18.418C40.32 17.5087 38.797 16.5994 37.2778 15.6826C37.1543 15.6078 37.0683 15.6078 36.9448 15.6826C35.4368 16.5919 33.9251 17.4937 32.4096 18.3993C31.8745 18.7173 31.2945 18.6088 30.9764 18.1336C30.8005 17.8754 30.7669 17.591 30.8342 17.2954C31.2271 15.5741 31.6163 13.8528 32.0167 12.1353C32.0541 11.9669 32.0167 11.8696 31.8894 11.7574C30.5573 10.6011 29.2327 9.43738 27.908 8.2699C27.5713 7.97429 27.444 7.60384 27.5825 7.17726C27.7097 6.75442 28.0091 6.50746 28.4506 6.4663C29.3861 6.37649 30.3253 6.29417 31.2608 6.2081C32.1177 6.12952 32.9746 6.05094 33.8278 5.9761C33.955 5.96488 34.0036 5.90127 34.0523 5.79649C34.7445 4.1725 35.4405 2.5485 36.129 0.924508C36.3161 0.482962 36.6342 0.243479 37.1132 0.217285Z" fill="#FA4A6F"/>
<path id="Vector_3" d="M64.2733 0.217285C64.7448 0.250962 65.0591 0.486704 65.2425 0.920767C65.9123 2.49986 66.5933 4.07521 67.2556 5.65804C67.3604 5.90501 67.4914 5.9761 67.7458 5.99481C68.6327 6.05843 69.5195 6.15197 70.4063 6.2343C71.1585 6.30165 71.9068 6.36901 72.659 6.43636C72.8012 6.45133 72.9471 6.45507 73.0855 6.49249C73.471 6.59726 73.7179 6.84797 73.8152 7.24087C73.9125 7.645 73.7928 7.98552 73.4897 8.25119C72.2885 9.31016 71.0836 10.3654 69.8787 11.4243C69.7927 11.4992 69.7178 11.589 69.6243 11.6451C69.3511 11.806 69.3324 12.0156 69.4035 12.3112C69.8001 13.9689 70.1706 15.6303 70.5448 17.2917C70.6421 17.7295 70.5336 18.1149 70.1594 18.3843C69.7889 18.6537 69.396 18.65 69.0031 18.418C67.4802 17.5087 65.9572 16.5994 64.438 15.6826C64.3145 15.6078 64.2284 15.6078 64.1049 15.6826C62.5969 16.5919 61.0852 17.4937 59.5697 18.3993C59.0346 18.7173 58.4546 18.6088 58.1366 18.1336C57.9607 17.8754 57.927 17.591 57.9944 17.2954C58.3873 15.5741 58.7764 13.8528 59.1768 12.1353C59.2142 11.9669 59.1768 11.8696 59.0496 11.7574C57.7175 10.6011 56.3928 9.43738 55.0682 8.2699C54.7314 7.97429 54.6042 7.60384 54.7426 7.17726C54.8699 6.75442 55.1692 6.50746 55.6108 6.4663C56.5463 6.37649 57.4855 6.29417 58.421 6.2081C59.2779 6.12952 60.1348 6.05094 60.9879 5.9761C61.1151 5.96488 61.1638 5.90127 61.2124 5.79649C61.9047 4.1725 62.6007 2.5485 63.2892 0.924508C63.4763 0.482962 63.7944 0.243479 64.2733 0.217285Z" fill="#FA4A6F"/>
<path id="Vector_4" d="M91.4374 0.217285C91.9089 0.250962 92.2232 0.486704 92.4065 0.920767C93.0763 2.49986 93.7574 4.07521 94.4197 5.65804C94.5245 5.90501 94.6554 5.9761 94.9099 5.99481C95.7967 6.05843 96.6836 6.15197 97.5704 6.2343C98.3225 6.30165 99.0709 6.36901 99.823 6.43636C99.9652 6.45133 100.111 6.45507 100.25 6.49249C100.635 6.59726 100.882 6.84797 100.979 7.24087C101.077 7.645 100.957 7.98552 100.654 8.25119C99.4526 9.31016 98.2477 10.3654 97.0428 11.4243C96.9567 11.4992 96.8819 11.589 96.7883 11.6451C96.5152 11.806 96.4965 12.0156 96.5676 12.3112C96.9642 13.9689 97.3347 15.6303 97.7088 17.2917C97.8061 17.7295 97.6976 18.1149 97.3234 18.3843C96.953 18.6537 96.5601 18.65 96.1672 18.418C94.6442 17.5087 93.1213 16.5994 91.602 15.6826C91.4785 15.6078 91.3925 15.6078 91.269 15.6826C89.761 16.5919 88.2493 17.4937 86.7338 18.3993C86.1987 18.7173 85.6187 18.6088 85.3006 18.1336C85.1248 17.8754 85.0911 17.591 85.1584 17.2954C85.5513 15.5741 85.9405 13.8528 86.3409 12.1353C86.3783 11.9669 86.3409 11.8696 86.2137 11.7574C84.8815 10.6011 83.5569 9.43738 82.2323 8.2699C81.8955 7.97429 81.7683 7.60384 81.9067 7.17726C82.0339 6.75442 82.3333 6.50746 82.7748 6.4663C83.7103 6.37649 84.6495 6.29417 85.585 6.2081C86.4419 6.12952 87.2988 6.05094 88.152 5.9761C88.2792 5.96488 88.3278 5.90127 88.3765 5.79649C89.0688 4.1725 89.7647 2.5485 90.4533 0.924508C90.6404 0.482962 90.9584 0.243479 91.4374 0.217285Z" fill="#FA4A6F"/>
<path id="Vector_5" d="M118.598 0.217285C119.069 0.250962 119.383 0.486704 119.567 0.920767C120.237 2.49986 120.918 4.07521 121.58 5.65804C121.685 5.90501 121.816 5.9761 122.07 5.99481C122.957 6.05843 123.844 6.15197 124.731 6.2343C125.483 6.30165 126.231 6.36901 126.983 6.43636C127.125 6.45133 127.271 6.45507 127.41 6.49249C127.795 6.59726 128.042 6.84797 128.139 7.24087C128.237 7.645 128.117 7.98552 127.814 8.25119C126.613 9.31016 125.408 10.3654 124.203 11.4243C124.117 11.4992 124.042 11.589 123.948 11.6451C123.675 11.806 123.657 12.0156 123.728 12.3112C124.124 13.9689 124.495 15.6303 124.869 17.2917C124.966 17.7295 124.858 18.1149 124.484 18.3843C124.113 18.6537 123.72 18.65 123.327 18.418C121.804 17.5087 120.281 16.5994 118.762 15.6826C118.639 15.6078 118.553 15.6078 118.429 15.6826C116.921 16.5919 115.409 17.4937 113.894 18.3993C113.359 18.7173 112.779 18.6088 112.461 18.1336C112.285 17.8754 112.251 17.591 112.319 17.2954C112.711 15.5741 113.101 13.8528 113.501 12.1353C113.538 11.9669 113.501 11.8696 113.374 11.7574C112.042 10.6011 110.717 9.43738 109.392 8.2699C109.056 7.97429 108.928 7.60384 109.067 7.17726C109.194 6.75442 109.493 6.50746 109.935 6.4663C110.87 6.37649 111.81 6.29417 112.745 6.2081C113.602 6.12952 114.459 6.05094 115.312 5.9761C115.439 5.96488 115.488 5.90127 115.537 5.79649C116.229 4.1725 116.925 2.5485 117.613 0.924508C117.801 0.482962 118.119 0.243479 118.598 0.217285Z" fill="#FA4A6F"/>
</g>
</svg>
