<svg width="17" height="17" viewBox="0 0 17 17" fill="none" xmlns="http://www.w3.org/2000/svg">
<g id="account_circle">
<mask id="mask0_1_14901" style="mask-type:alpha" maskUnits="userSpaceOnUse" x="0" y="0" width="17" height="17">
<rect id="Bounding box" x="0.1875" y="0.866394" width="16" height="16" fill="#D9D9D9"/>
</mask>
<g mask="url(#mask0_1_14901)">
<path id="account_circle_2" d="M4.0901 12.2665C4.65677 11.8332 5.2901 11.4915 5.9901 11.2415C6.6901 10.9915 7.42344 10.8665 8.1901 10.8665C8.95677 10.8665 9.6901 10.9915 10.3901 11.2415C11.0901 11.4915 11.7234 11.8332 12.2901 12.2665C12.679 11.811 12.9818 11.2943 13.1984 10.7165C13.4151 10.1387 13.5234 9.52208 13.5234 8.86653C13.5234 7.38875 13.004 6.13041 11.9651 5.09153C10.9262 4.05264 9.66788 3.53319 8.1901 3.53319C6.71233 3.53319 5.45399 4.05264 4.4151 5.09153C3.37622 6.13041 2.85677 7.38875 2.85677 8.86653C2.85677 9.52208 2.9651 10.1387 3.18177 10.7165C3.39844 11.2943 3.70122 11.811 4.0901 12.2665ZM8.1901 9.53319C7.53455 9.53319 6.98177 9.30819 6.53177 8.85819C6.08177 8.40819 5.85677 7.85541 5.85677 7.19986C5.85677 6.5443 6.08177 5.99153 6.53177 5.54153C6.98177 5.09153 7.53455 4.86653 8.1901 4.86653C8.84566 4.86653 9.39844 5.09153 9.84844 5.54153C10.2984 5.99153 10.5234 6.5443 10.5234 7.19986C10.5234 7.85541 10.2984 8.40819 9.84844 8.85819C9.39844 9.30819 8.84566 9.53319 8.1901 9.53319ZM8.1901 15.5332C7.26788 15.5332 6.40122 15.3582 5.5901 15.0082C4.77899 14.6582 4.07344 14.1832 3.47344 13.5832C2.87344 12.9832 2.39844 12.2776 2.04844 11.4665C1.69844 10.6554 1.52344 9.78875 1.52344 8.86653C1.52344 7.9443 1.69844 7.07764 2.04844 6.26653C2.39844 5.45542 2.87344 4.74986 3.47344 4.14986C4.07344 3.54986 4.77899 3.07486 5.5901 2.72486C6.40122 2.37486 7.26788 2.19986 8.1901 2.19986C9.11233 2.19986 9.97899 2.37486 10.7901 2.72486C11.6012 3.07486 12.3068 3.54986 12.9068 4.14986C13.5068 4.74986 13.9818 5.45542 14.3318 6.26653C14.6818 7.07764 14.8568 7.9443 14.8568 8.86653C14.8568 9.78875 14.6818 10.6554 14.3318 11.4665C13.9818 12.2776 13.5068 12.9832 12.9068 13.5832C12.3068 14.1832 11.6012 14.6582 10.7901 15.0082C9.97899 15.3582 9.11233 15.5332 8.1901 15.5332ZM8.1901 14.1999C8.77899 14.1999 9.33455 14.1137 9.85677 13.9415C10.379 13.7693 10.8568 13.5221 11.2901 13.1999C10.8568 12.8776 10.379 12.6304 9.85677 12.4582C9.33455 12.286 8.77899 12.1999 8.1901 12.1999C7.60121 12.1999 7.04566 12.286 6.52344 12.4582C6.00121 12.6304 5.52344 12.8776 5.0901 13.1999C5.52344 13.5221 6.00121 13.7693 6.52344 13.9415C7.04566 14.1137 7.60121 14.1999 8.1901 14.1999ZM8.1901 8.19986C8.47899 8.19986 8.71788 8.10541 8.90677 7.91653C9.09566 7.72764 9.1901 7.48875 9.1901 7.19986C9.1901 6.91097 9.09566 6.67208 8.90677 6.48319C8.71788 6.2943 8.47899 6.19986 8.1901 6.19986C7.90122 6.19986 7.66233 6.2943 7.47344 6.48319C7.28455 6.67208 7.1901 6.91097 7.1901 7.19986C7.1901 7.48875 7.28455 7.72764 7.47344 7.91653C7.66233 8.10541 7.90122 8.19986 8.1901 8.19986Z" fill="#223322"/>
</g>
</g>
</svg>
