<svg width="55" height="56" viewBox="0 0 55 56" fill="none" xmlns="http://www.w3.org/2000/svg">
<g id="Group 336">
<circle id="Ellipse 26" cx="27.4827" cy="28.1794" r="27.4827" fill="#FCE0ED"/>
<g id="maps_ugc">
<mask id="mask0_1_15973" style="mask-type:alpha" maskUnits="userSpaceOnUse" x="13" y="14" width="29" height="29">
<rect id="Bounding box" x="13.4844" y="14.1794" width="28" height="28" fill="#D9D9D9"/>
</mask>
<g mask="url(#mask0_1_15973)">
<path id="maps_ugc_2" d="M14.6523 41.0129L16.9273 33.1963C16.5579 32.3991 16.2808 31.5824 16.0961 30.7463C15.9114 29.9102 15.819 29.0546 15.819 28.1796C15.819 26.5657 16.1253 25.0491 16.7378 23.6296C17.3503 22.2102 18.1815 20.9754 19.2315 19.9254C20.2815 18.8754 21.5162 18.0442 22.9357 17.4317C24.3551 16.8192 25.8718 16.5129 27.4857 16.5129C29.0996 16.5129 30.6162 16.8192 32.0357 17.4317C33.4551 18.0442 34.6898 18.8754 35.7398 19.9254C36.7898 20.9754 37.6211 22.2102 38.2336 23.6296C38.8461 25.0491 39.1523 26.5657 39.1523 28.1796C39.1523 29.7935 38.8461 31.3102 38.2336 32.7296C37.6211 34.149 36.7898 35.3838 35.7398 36.4338C34.6898 37.4838 33.4551 38.315 32.0357 38.9275C30.6162 39.54 29.0996 39.8463 27.4857 39.8463C26.6107 39.8463 25.7551 39.7539 24.919 39.5692C24.0829 39.3845 23.2662 39.1074 22.469 38.7379L14.6523 41.0129ZM18.094 37.5713L21.8273 36.4629C22.0996 36.3852 22.3766 36.356 22.6586 36.3754C22.9405 36.3949 23.2079 36.4629 23.4607 36.5796C24.0829 36.8907 24.7343 37.1241 25.4148 37.2796C26.0954 37.4352 26.7857 37.5129 27.4857 37.5129C30.0912 37.5129 32.2982 36.6088 34.1065 34.8004C35.9148 32.9921 36.819 30.7852 36.819 28.1796C36.819 25.574 35.9148 23.3671 34.1065 21.5588C32.2982 19.7504 30.0912 18.8463 27.4857 18.8463C24.8801 18.8463 22.6732 19.7504 20.8648 21.5588C19.0565 23.3671 18.1523 25.574 18.1523 28.1796C18.1523 28.8796 18.2301 29.5699 18.3857 30.2504C18.5412 30.931 18.7746 31.5824 19.0857 32.2046C19.2218 32.4574 19.2947 32.7247 19.3044 33.0067C19.3141 33.2886 19.2801 33.5657 19.2023 33.8379L18.094 37.5713ZM26.319 32.8463H28.6523V29.3463H32.1523V27.0129H28.6523V23.5129H26.319V27.0129H22.819V29.3463H26.319V32.8463Z" fill="#FA4A6F"/>
</g>
</g>
</g>
</svg>
