<svg width="55" height="56" viewBox="0 0 55 56" fill="none" xmlns="http://www.w3.org/2000/svg">
<g id="Group 338">
<circle id="Ellipse 27" cx="27.4827" cy="28.2271" r="27.4827" fill="#FCE0ED"/>
<g id="call">
<mask id="mask0_1_15963" style="mask-type:alpha" maskUnits="userSpaceOnUse" x="13" y="14" width="29" height="29">
<rect id="Bounding box" x="13.4844" y="14.2271" width="28" height="28" fill="black"/>
</mask>
<g mask="url(#mask0_1_15963)">
<path id="call_2" d="M36.7594 38.7271C34.251 38.7271 31.8059 38.168 29.424 37.05C27.042 35.9319 24.9323 34.4541 23.0948 32.6166C21.2573 30.7791 19.7795 28.6694 18.6615 26.2875C17.5434 23.9055 16.9844 21.4604 16.9844 18.9521C16.9844 18.6021 17.101 18.3104 17.3344 18.0771C17.5677 17.8437 17.8594 17.7271 18.2094 17.7271H22.9344C23.2066 17.7271 23.4497 17.8146 23.6635 17.9896C23.8774 18.1646 24.0038 18.3882 24.0427 18.6604L24.801 22.7437C24.8399 23.0159 24.8351 23.2639 24.7865 23.4875C24.7378 23.7111 24.626 23.9104 24.451 24.0854L21.6219 26.9437C22.4385 28.3437 23.4642 29.6562 24.699 30.8812C25.9337 32.1062 27.2899 33.1659 28.7677 34.0604L31.5094 31.3187C31.6844 31.1437 31.9128 31.0125 32.1948 30.925C32.4767 30.8375 32.7538 30.8132 33.026 30.8521L37.051 31.6687C37.3233 31.727 37.5469 31.8583 37.7219 32.0625C37.8969 32.2666 37.9844 32.5048 37.9844 32.7771V37.5021C37.9844 37.8521 37.8677 38.1437 37.6344 38.3771C37.401 38.6104 37.1094 38.7271 36.7594 38.7271ZM20.5135 24.7271L22.4385 22.8021L21.9427 20.0604H19.3469C19.4441 20.8576 19.5802 21.6451 19.7552 22.4229C19.9302 23.2007 20.183 23.9687 20.5135 24.7271ZM30.9552 35.1687C31.7135 35.4993 32.4865 35.7618 33.274 35.9562C34.0615 36.1507 34.8538 36.2771 35.651 36.3354V33.7687L32.9094 33.2146L30.9552 35.1687Z" fill="#FA4A6F"/>
</g>
</g>
</g>
</svg>
