<svg width="55" height="56" viewBox="0 0 55 56" fill="none" xmlns="http://www.w3.org/2000/svg">
<g id="Group 337">
<circle id="Ellipse 27" cx="27.4827" cy="28.2747" r="27.4827" fill="#FCE0ED"/>
<g id="mail">
<mask id="mask0_1_15983" style="mask-type:alpha" maskUnits="userSpaceOnUse" x="13" y="14" width="29" height="29">
<rect id="Bounding box" x="13.4844" y="14.2747" width="28" height="28" fill="#D9D9D9"/>
</mask>
<g mask="url(#mask0_1_15983)">
<path id="mail_2" d="M18.1497 37.6079C17.5081 37.6079 16.9588 37.3794 16.5018 36.9225C16.0449 36.4655 15.8164 35.9162 15.8164 35.2746V21.2746C15.8164 20.6329 16.0449 20.0836 16.5018 19.6266C16.9588 19.1697 17.5081 18.9412 18.1497 18.9412H36.8164C37.4581 18.9412 38.0074 19.1697 38.4643 19.6266C38.9213 20.0836 39.1497 20.6329 39.1497 21.2746V35.2746C39.1497 35.9162 38.9213 36.4655 38.4643 36.9225C38.0074 37.3794 37.4581 37.6079 36.8164 37.6079H18.1497ZM27.4831 29.4412L18.1497 23.6079V35.2746H36.8164V23.6079L27.4831 29.4412ZM27.4831 27.1079L36.8164 21.2746H18.1497L27.4831 27.1079ZM18.1497 23.6079V21.2746V35.2746V23.6079Z" fill="#FA4A6F"/>
</g>
</g>
</g>
</svg>
