<svg width="83" height="52" viewBox="0 0 83 52" fill="none" xmlns="http://www.w3.org/2000/svg">
<g id="Real Mate">
<path d="M17.8294 23.5651H12.2453L8.28447 18.0135H8.02474H5.49242V23.5651H0.6875V0.839111H8.02474C11.1414 0.839111 13.5223 1.58582 15.1672 3.07924C16.8121 4.55102 17.6346 6.66129 17.6346 9.41005C17.6346 13.1977 16.1303 15.7517 13.1219 17.0719L17.8294 23.5651ZM5.49242 5.28691V13.5657H8.02474C11.1198 13.5657 12.6673 12.1805 12.6673 9.41005C12.6673 6.66129 11.1198 5.28691 8.02474 5.28691H5.49242Z" fill="#23273A"/>
<path d="M36.0553 5.25444H26.6078V10.7736H35.0164V15.0591H26.6078V19.1497H36.0553V23.5651H21.8029V0.839111H36.0553V5.25444Z" fill="#23273A"/>
<path d="M54.6607 23.5651L53.427 19.7991H44.6288L43.3951 23.5651H38.3954L46.2845 0.839111H51.8037L59.6928 23.5651H54.6607ZM45.9923 15.7409H52.0959L49.109 6.68293H48.9792L45.9923 15.7409Z" fill="#23273A"/>
<path d="M67.2533 19.0848H76.2787V23.5651H62.4484V0.839111H67.2533V19.0848Z" fill="#23273A"/>
<path d="M20.4591 28.4349H25.5562V51.1609H20.8811V37.6876H20.7513L14.5503 51.1609H11.6934L5.49242 37.6876H5.39502V51.1609H0.6875V28.4349H5.78461L13.0569 43.9535H13.1868L20.4591 28.4349Z" fill="#23273A"/>
<path d="M44.5785 51.1609L43.3448 47.3949H34.5467L33.313 51.1609H28.3132L36.2024 28.4349H41.7216L49.6107 51.1609H44.5785ZM35.9102 43.3367H42.0138L39.0269 34.2787H38.8971L35.9102 43.3367Z" fill="#23273A"/>
<path d="M65.439 28.4349V32.9152H59.2056V51.1609H54.4007V32.9152H48.1997V28.4349H65.439Z" fill="#23273A"/>
<path d="M82.7881 32.8503H73.3406V38.3694H81.7492V42.6549H73.3406V46.7456H82.7881V51.1609H68.5357V28.4349H82.7881V32.8503Z" fill="#23273A"/>
</g>
</svg>
