<svg width="249" height="106" viewBox="0 0 249 106" fill="none" xmlns="http://www.w3.org/2000/svg">
<path d="M0 13.418C0 6.95573 6.03741 2.1904 12.3229 3.6915L46.7189 11.906L81.1148 3.6915C87.4003 2.1904 93.4377 6.95574 93.4377 13.418V93.1033C93.4377 99.5655 87.4003 104.331 81.1148 102.83L49.0417 95.17C47.5146 94.8053 45.9231 94.8053 44.396 95.17L12.3229 102.83C6.03741 104.331 0 99.5655 0 93.1033V13.418Z" fill="white"/>
<path d="M46.604 18.5777L46.7201 18.6054L46.8363 18.5777L48.8666 18.0928L48.7504 17.6065L53.8262 16.3943L53.9423 16.8806L58.0029 15.9108L57.8868 15.4245L62.9625 14.2123L63.0787 14.6987L67.1392 13.7289L67.0231 13.2426L72.0988 12.0304L72.215 12.5167L74.2453 12.0318C74.88 11.8803 75.5112 11.796 76.1326 11.7735L76.1146 11.2739C77.8394 11.2116 79.4967 11.6014 80.9601 12.3435L80.7339 12.7894C81.8702 13.3657 82.8835 14.1655 83.7079 15.1368L84.0891 14.8133C85.1508 16.0642 85.915 17.5857 86.255 19.2778L85.7648 19.3763C85.8873 19.9859 85.952 20.6195 85.952 21.272V23.303H86.452V28.3807H85.952V32.4428H86.452V37.5205H85.952V41.5826H86.452V46.6603H85.952V50.7224H86.452V55.8001H85.952V59.8622H86.452V64.9399H85.952V69.002H86.452V74.0796H85.952V78.1418H86.452V83.2194H85.952V85.2505C85.952 85.903 85.8873 86.5366 85.7648 87.1462L86.255 87.2447C85.915 88.9368 85.1508 90.4583 84.0891 91.7092L83.7079 91.3857C82.8835 92.357 81.8702 93.1568 80.7339 93.733L80.96 94.179C79.4967 94.921 77.8394 95.3109 76.1146 95.2486L76.1326 94.7489C75.5112 94.7265 74.8799 94.6422 74.2453 94.4906L72.387 94.0469L72.2709 94.5332L67.6253 93.4237L67.7415 92.9374L64.025 92.0498L63.9089 92.5362L59.2633 91.4267L59.3794 90.9404L55.663 90.0528L55.5468 90.5391L50.9013 89.4297L51.0174 88.9433L49.1592 88.4996C48.8036 88.4146 48.4446 88.3485 48.0838 88.3013L48.0189 88.797C47.1567 88.6841 46.2835 88.6841 45.4214 88.797L45.3565 88.3013C44.9957 88.3485 44.6367 88.4146 44.2811 88.4996L42.4229 88.9433L42.539 89.4297L37.8935 90.5391L37.7773 90.0528L34.0609 90.9404L34.177 91.4267L29.5314 92.5362L29.4153 92.0498L25.6988 92.9374L25.815 93.4237L21.1694 94.5332L21.0532 94.0469L19.195 94.4907C18.5603 94.6422 17.9291 94.7265 17.3077 94.7489L17.3257 95.2486C15.6009 95.3109 13.9436 94.9211 12.4802 94.179L12.7064 93.733C11.5701 93.1568 10.5568 92.357 9.73241 91.3857L9.3512 91.7092C8.28951 90.4583 7.52533 88.9368 7.18527 87.2447L7.67547 87.1462C7.55295 86.5366 7.48828 85.903 7.48828 85.2505V83.2194H6.98828V78.1418H7.48828V74.0797H6.98828V69.002H7.48828V64.9399H6.98828V59.8622H7.48828V55.8001H6.98828V50.7224H7.48828V46.6603H6.98828V41.5826H7.48828V37.5205H6.98828V32.4428H7.48828V28.3807H6.98828V23.303H7.48828V21.272C7.48828 20.6195 7.55295 19.9859 7.67547 19.3763L7.18527 19.2778C7.52533 17.5857 8.28951 16.0642 9.3512 14.8133L9.73241 15.1368C10.5568 14.1655 11.5701 13.3657 12.7064 12.7894L12.4802 12.3435C13.9436 11.6014 15.6009 11.2116 17.3257 11.2739L17.3077 11.7735C17.9291 11.796 18.5604 11.8803 19.195 12.0318L21.2253 12.5167L21.3415 12.0304L26.4172 13.2426L26.3011 13.7289L30.3616 14.6987L30.4778 14.2123L35.5535 15.4245L35.4374 15.9108L39.498 16.8806L39.6141 16.3943L44.6898 17.6065L44.5737 18.0928L46.604 18.5777Z" stroke="url(#paint0_linear_1_14320)" stroke-dasharray="4 5"/>
<path d="M44.8022 85.2094C44.5576 84.8731 44.3436 84.5062 44.0684 84.231C34.1321 74.2947 24.1958 64.3279 14.229 54.4222C13.5563 53.7495 13.4035 53.1381 13.6175 52.282C15.513 44.9139 22.0863 40.0833 30.0353 40.2668C37.006 40.4196 43.3958 45.9228 44.8327 53.0464C45.0162 53.933 45.1385 54.8196 45.1385 55.7062C45.169 65.2756 45.1385 74.8145 45.1385 84.3839C45.1385 84.5673 45.1079 84.7813 45.1079 84.9648C45.0162 85.0565 44.9244 85.1177 44.8022 85.2094Z" fill="url(#paint1_linear_1_14320)"/>
<path d="M48.2969 85.2095C48.2969 84.5369 48.2969 84.0783 48.2969 83.6503C48.2969 74.6618 48.2969 65.7038 48.2969 56.7153C48.2969 46.8708 55.9096 39.6861 65.7236 40.2975C72.2968 40.695 78.6255 46.1676 79.879 52.6185C79.9707 53.0771 79.8178 53.7803 79.5121 54.1166C69.3312 64.3586 59.0892 74.5701 48.8778 84.7815C48.7555 84.8732 48.6026 84.965 48.2969 85.2095Z" fill="url(#paint2_linear_1_14320)"/>
<path d="M21.0158 29.4758C20.9852 25.0427 24.5929 21.3739 29.0566 21.3128C33.4897 21.2516 37.2808 24.9815 37.2808 29.4452C37.2808 33.8478 33.612 37.5471 29.2094 37.6083C24.8069 37.6694 21.0464 33.9701 21.0158 29.4758Z" fill="white"/>
<path d="M21.0158 29.4758C20.9852 25.0427 24.5929 21.3739 29.0566 21.3128C33.4897 21.2516 37.2808 24.9815 37.2808 29.4452C37.2808 33.8478 33.612 37.5471 29.2094 37.6083C24.8069 37.6694 21.0464 33.9701 21.0158 29.4758Z" fill="url(#paint3_linear_1_14320)"/>
<path d="M72.4219 29.5981C72.2996 34.123 68.5391 37.7612 64.106 37.6083C59.6423 37.486 56.0041 33.6338 56.157 29.2007C56.3099 24.8287 60.0398 21.2516 64.3812 21.3128C68.906 21.3739 72.5442 25.1344 72.4219 29.5981Z" fill="white"/>
<path d="M72.4219 29.5981C72.2996 34.123 68.5391 37.7612 64.106 37.6083C59.6423 37.486 56.0041 33.6338 56.157 29.2007C56.3099 24.8287 60.0398 21.2516 64.3812 21.3128C68.906 21.3739 72.5442 25.1344 72.4219 29.5981Z" fill="url(#paint4_linear_1_14320)"/>
<path d="M143.433 49.3287H134.416L128.021 40.3645H127.601H123.512V49.3287H115.754V12.6328H127.601C132.634 12.6328 136.478 13.8385 139.134 16.25C141.791 18.6265 143.119 22.034 143.119 26.4724C143.119 32.5884 140.69 36.7123 135.832 38.8442L143.433 49.3287ZM123.512 19.8147V33.1825H127.601C132.599 33.1825 135.098 30.9458 135.098 26.4724C135.098 22.034 132.599 19.8147 127.601 19.8147H123.512Z" fill="white"/>
<path d="M172.863 19.7623H157.608V28.6742H171.185V35.594H157.608V42.1992H172.863V49.3287H149.849V12.6328H172.863V19.7623Z" fill="white"/>
<path d="M202.905 49.3287L200.913 43.2477H186.706L184.714 49.3287H176.641L189.38 12.6328H198.292L211.031 49.3287H202.905ZM188.908 36.6949H198.764L193.941 22.0689H193.731L188.908 36.6949Z" fill="white"/>
<path d="M223.239 42.0944H237.812V49.3287H215.48V12.6328H223.239V42.0944Z" fill="white"/>
<path d="M147.679 57.1922H155.91V93.8881H148.361V72.1326H148.151L138.138 93.8881H133.525L123.512 72.1326H123.355V93.8881H115.754V57.1922H123.984L135.727 82.2502H135.937L147.679 57.1922Z" fill="white"/>
<path d="M186.625 93.8881L184.633 87.807H170.427L168.435 93.8881H160.362L173.1 57.1922H182.012L194.751 93.8881H186.625ZM172.629 81.2542H182.484L177.661 66.6282H177.451L172.629 81.2542Z" fill="white"/>
<path d="M220.309 57.1922V64.4265H210.244V93.8881H202.485V64.4265H192.473V57.1922H220.309Z" fill="white"/>
<path d="M248.323 64.3216H233.068V73.2335H246.645V80.1533H233.068V86.7586H248.323V93.8881H225.309V57.1922H248.323V64.3216Z" fill="white"/>
<defs>
<linearGradient id="paint0_linear_1_14320" x1="46.7201" y1="8.60254" x2="46.7201" y2="97.9199" gradientUnits="userSpaceOnUse">
<stop stop-color="#FA4A6F"/>
<stop offset="1" stop-color="#532B79"/>
</linearGradient>
<linearGradient id="paint1_linear_1_14320" x1="29.3397" y1="45.0206" x2="29.3397" y2="85.2094" gradientUnits="userSpaceOnUse">
<stop stop-color="#4D2771"/>
<stop offset="1" stop-color="#FA4A6F"/>
</linearGradient>
<linearGradient id="paint2_linear_1_14320" x1="64.1012" y1="44.7726" x2="64.1012" y2="85.2095" gradientUnits="userSpaceOnUse">
<stop stop-color="#4D2771"/>
<stop offset="1" stop-color="#FA4A6F"/>
</linearGradient>
<linearGradient id="paint3_linear_1_14320" x1="29.1482" y1="29.4605" x2="29.1482" y2="37.609" gradientUnits="userSpaceOnUse">
<stop stop-color="#4D2771"/>
<stop offset="1" stop-color="#FA4A6F"/>
</linearGradient>
<linearGradient id="paint4_linear_1_14320" x1="64.2886" y1="29.4625" x2="64.2886" y2="37.6129" gradientUnits="userSpaceOnUse">
<stop stop-color="#4D2771"/>
<stop offset="1" stop-color="#FA4A6F"/>
</linearGradient>
</defs>
</svg>
