<svg width="43" height="43" viewBox="0 0 43 43" fill="none" xmlns="http://www.w3.org/2000/svg">
<g id="Group 18">
<path id="Vector" d="M9.93322 3.41754C9.93322 2.85465 9.93322 2.33316 9.93322 1.81167C9.94149 0.826627 10.6451 0.114746 11.6219 0.114746C14.9081 0.114746 18.1861 0.114746 21.4723 0.114746C22.4573 0.114746 23.1609 0.818349 23.1692 1.81167C23.1775 2.33316 23.1692 2.85466 23.1692 3.42582C23.3431 3.42582 23.4921 3.42582 23.6411 3.42582C26.1906 3.42582 28.7484 3.42582 31.2979 3.42582C32.4237 3.42582 33.1024 4.10458 33.1024 5.22207C33.1024 9.1788 33.1024 13.1438 33.1024 17.1005C33.1024 18.127 32.3823 18.8802 31.4304 18.872C30.4867 18.8637 29.7914 18.1187 29.7914 17.1171C29.7914 13.8309 29.7914 10.5529 29.7914 7.26666C29.7914 7.1011 29.7914 6.94383 29.7914 6.76172C27.573 6.76172 25.4042 6.76172 23.1692 6.76172C23.1692 7.2501 23.1692 7.73849 23.1692 8.23515C23.1692 9.38575 22.4987 10.0562 21.3481 10.0562C18.1447 10.0562 14.9495 10.0562 11.746 10.0562C10.6037 10.0562 9.93322 9.37747 9.93322 8.22687C9.93322 7.74677 9.93322 7.26666 9.93322 6.77C7.72308 6.77 5.54605 6.77 3.34418 6.77C3.34418 17.5558 3.34418 28.3499 3.34418 39.2019C3.49318 39.2019 3.65046 39.2019 3.80773 39.2019C10.5789 39.2019 17.35 39.2019 24.1294 39.2019C24.8082 39.2019 25.338 39.4751 25.6608 40.0794C25.9671 40.6423 25.9422 41.23 25.5863 41.768C25.2469 42.2895 24.7337 42.5213 24.1129 42.5213C19.2953 42.5213 14.4859 42.5213 9.66833 42.5213C7.04431 42.5213 4.42856 42.5213 1.80454 42.5213C0.687051 42.5213 0 41.8425 0 40.7168C0 28.8962 0 17.0757 0 5.25518C0 4.1377 0.678774 3.45893 1.80454 3.45065C4.34579 3.45065 6.87876 3.45065 9.42 3.45065C9.569 3.41754 9.718 3.41754 9.93322 3.41754ZM19.8416 6.71205C19.8416 5.59457 19.8416 4.52675 19.8416 3.44237C17.6397 3.44237 15.4544 3.44237 13.2691 3.44237C13.2691 4.55158 13.2691 5.62768 13.2691 6.71205C15.471 6.71205 17.648 6.71205 19.8416 6.71205Z" fill="#FA4A6F"/>
<path id="Vector_2" d="M42.3812 29.8652C42.4474 31.2641 42.3481 32.9445 41.7687 34.5752C40.8581 37.1495 39.2191 39.1858 37.0835 40.8331C36.3965 41.3629 35.6515 41.8099 34.9148 42.2651C34.4264 42.5631 33.88 42.5962 33.3751 42.3065C30.0475 40.4358 27.4648 37.8862 26.3225 34.1447C26.0162 33.1348 25.9169 32.0422 25.8424 30.9744C25.7596 29.8734 25.8259 28.7725 25.8259 27.6633C25.8259 26.9349 26.1487 26.4051 26.8026 26.074C28.9714 24.9896 31.1401 23.9052 33.3006 22.8209C33.8304 22.556 34.3601 22.556 34.8899 22.8209C37.0587 23.9052 39.2191 24.9896 41.3879 26.0657C42.0584 26.4051 42.3812 26.9431 42.3812 27.6964C42.3729 28.3172 42.3812 28.9381 42.3812 29.8652ZM39.0701 30.2459C39.0701 29.7741 39.0453 29.3685 39.0784 28.9712C39.1033 28.6897 38.9874 28.5573 38.7473 28.4414C37.3153 27.7378 35.8832 27.0259 34.4595 26.2975C34.1946 26.165 33.9876 26.1816 33.731 26.314C32.4728 26.9597 31.2146 27.6302 29.9233 28.2013C29.2776 28.4828 29.079 28.8387 29.1204 29.5258C29.1783 30.6929 29.0873 31.8684 29.4184 33.0107C30.1551 35.5354 31.8272 37.3316 33.9297 38.7802C34.0125 38.8382 34.2277 38.8133 34.3188 38.7471C37.2904 36.6611 39.2605 34.0123 39.0701 30.2459Z" fill="#FA4A6F"/>
<path id="Vector_3" d="M19.9092 13.0201C21.5068 13.0201 23.1043 13.0201 24.7102 13.0201C25.7532 13.0201 26.4899 13.7072 26.4899 14.6757C26.4899 15.6359 25.7532 16.3312 24.7102 16.3312C21.4819 16.3312 18.2536 16.3312 15.0336 16.3312C13.9906 16.3312 13.2539 15.6442 13.2539 14.6757C13.2539 13.7072 13.9906 13.0201 15.0336 13.0201C16.656 13.0201 18.2785 13.0201 19.9092 13.0201Z" fill="#FA4A6F"/>
<path id="Vector_4" d="M19.876 19.6425C21.4902 19.6425 23.1043 19.6425 24.7185 19.6425C25.7532 19.6425 26.4899 20.3378 26.4899 21.3063C26.4816 22.2499 25.7449 22.9453 24.7433 22.9535C21.5068 22.9535 18.2619 22.9535 15.0253 22.9535C13.9906 22.9535 13.2539 22.2582 13.2539 21.2897C13.2622 20.3295 13.9989 19.6507 15.0419 19.6507C16.6478 19.6425 18.2619 19.6425 19.876 19.6425Z" fill="#FA4A6F"/>
<path id="Vector_5" d="M18.0885 36.1974C17.0538 36.1974 16.0191 36.1974 14.9844 36.1974C13.9828 36.1974 13.2461 35.4938 13.2461 34.5419C13.2461 33.59 13.9828 32.8864 14.9844 32.8864C17.0538 32.8864 19.115 32.8864 21.1844 32.8864C22.186 32.8864 22.9227 33.59 22.931 34.5419C22.931 35.4855 22.1943 36.1974 21.1927 36.1974C20.1497 36.1974 19.1232 36.1974 18.0885 36.1974Z" fill="#FA4A6F"/>
<path id="Vector_6" d="M17.9225 26.2644C18.891 26.2644 19.8512 26.2644 20.8197 26.2644C21.7882 26.2727 22.5166 26.9846 22.5166 27.9199C22.5166 28.8553 21.7882 29.5672 20.8197 29.5755C18.8662 29.5838 16.9044 29.5838 14.9508 29.5755C13.9823 29.5755 13.2539 28.8553 13.2539 27.9199C13.2539 26.9846 13.9823 26.2727 14.9508 26.2727C15.9359 26.2644 16.9292 26.2644 17.9225 26.2644Z" fill="#FA4A6F"/>
<path id="Vector_7" d="M9.93329 14.6847C9.93329 15.5957 9.18795 16.341 8.27699 16.3327C7.36602 16.3327 6.62069 15.5874 6.62897 14.6764C6.62897 13.7654 7.3743 13.0201 8.28527 13.0284C9.18795 13.0284 9.93329 13.7654 9.93329 14.6847Z" fill="#FA4A6F"/>
<path id="Vector_8" d="M8.29403 22.9551C7.38307 22.9634 6.62944 22.2264 6.62116 21.3154C6.61288 20.3961 7.34994 19.6508 8.2609 19.6425C9.17187 19.6342 9.92548 20.3713 9.93376 21.2823C9.94204 22.2015 9.205 22.9468 8.29403 22.9551Z" fill="#FA4A6F"/>
<path id="Vector_9" d="M8.28574 26.2644C9.19671 26.2727 9.93376 27.018 9.92548 27.929C9.9172 28.8399 9.17187 29.577 8.2609 29.5687C7.34994 29.5604 6.61288 28.8151 6.62116 27.9041C6.62944 27.0015 7.37478 26.2644 8.28574 26.2644Z" fill="#FA4A6F"/>
<path id="Vector_10" d="M9.93329 34.5344C9.94157 35.4454 9.20452 36.199 8.29356 36.2073C7.38259 36.2156 6.62898 35.4785 6.62898 34.5676C6.62069 33.6483 7.35775 32.903 8.26871 32.903C9.17967 32.8864 9.92501 33.6152 9.93329 34.5344Z" fill="#FA4A6F"/>
</g>
</svg>
