<svg width="40" height="47" viewBox="0 0 40 47" fill="none" xmlns="http://www.w3.org/2000/svg">
<g id="Group 16">
<path id="Vector" d="M32.7635 28.3919C33.4012 28.3919 33.976 28.3829 34.5418 28.3919C35.5836 28.4009 36.356 29.1642 36.356 30.215C36.365 34.993 36.365 39.762 36.356 44.5399C36.356 45.5818 35.5746 46.3452 34.5328 46.3452C30.9673 46.3541 27.4108 46.3541 23.8453 46.3452C22.7586 46.3452 21.9952 45.5728 21.9952 44.4681C21.9952 37.9119 21.9952 31.3556 22.0041 24.7994C22.0041 24.4132 21.9143 24.2067 21.5461 24.0091C17.8099 21.9704 15.5377 18.8449 14.936 14.6328C13.984 7.96877 18.4745 1.93344 24.8242 0.640159C31.7936 -0.778861 38.4037 3.68476 39.7509 10.6631C40.7657 15.9171 38.1432 21.3776 33.3383 23.9462C32.8803 24.1887 32.7456 24.4492 32.7635 24.9341C32.7815 26.0747 32.7635 27.2153 32.7635 28.3919ZM32.7456 31.9843C32.1798 31.9843 31.6409 31.9843 31.102 31.9843C29.9165 31.9843 29.1711 31.2389 29.1711 30.0534C29.1711 27.7812 29.1711 25.4999 29.1711 23.2277C29.1711 23.0481 29.1801 22.8685 29.216 22.6978C29.3866 21.9075 29.9524 21.5303 30.6619 21.2519C34.5598 19.7251 36.9038 15.6387 36.2482 11.5433C35.4848 6.76529 31.1469 3.50514 26.2702 4.04401C22.0131 4.52001 18.5554 8.22922 18.3937 12.4953C18.25 16.411 20.5222 19.8688 24.1776 21.2968C25.2104 21.7009 25.5696 22.2218 25.5696 23.3355C25.5696 29.6402 25.5696 35.936 25.5696 42.2408C25.5696 42.4114 25.5696 42.5821 25.5696 42.7707C26.827 42.7707 28.0035 42.7707 29.189 42.7707C30.3656 42.7707 31.5421 42.7707 32.7276 42.7707C32.7276 41.5492 32.7276 40.3727 32.7276 39.1782C32.1618 39.1782 31.6229 39.1782 31.0841 39.1782C29.9614 39.1782 29.1531 38.4238 29.1621 37.373C29.1711 36.3402 29.9614 35.5947 31.0661 35.5947C31.6139 35.5947 32.1618 35.5947 32.7366 35.5947C32.7456 34.3733 32.7456 33.2147 32.7456 31.9843Z" fill="#FA4A6F"/>
<path id="Vector_2" d="M10.1305 35.5498C10.7951 35.6935 11.3699 35.7833 11.9267 35.945C15.6898 37.0137 18.4022 40.5972 18.3932 44.4771C18.3932 45.5368 17.6388 46.3362 16.6329 46.3541C15.6 46.3721 14.8277 45.5817 14.8007 44.495C14.7468 41.6929 12.5375 39.3488 9.78924 39.1692C6.98713 38.9896 4.53527 40.9475 4.0952 43.7316C4.05029 44.01 4.03233 44.2974 4.02335 44.5759C3.98742 45.5817 3.1881 46.3541 2.19119 46.3362C1.22123 46.3182 0.448854 45.5368 0.430891 44.5489C0.359042 40.3817 3.51143 36.5198 7.63377 35.7474C7.94811 35.6845 8.27142 35.6396 8.60372 35.5498C7.11286 35.2355 5.89142 34.517 5.01127 33.2686C4.13112 32.0112 3.82577 30.6012 4.13113 29.0924C4.66101 26.4609 7.08592 24.6377 9.79822 24.7904C12.3938 24.9431 14.6031 27.1435 14.7917 29.757C14.9983 32.5681 13.1302 34.9211 10.1305 35.5498ZM9.40305 28.3918C8.41512 28.3918 7.60682 29.2091 7.60682 30.1971C7.60682 31.176 8.4241 31.9933 9.40305 31.9933C10.382 31.9933 11.1993 31.176 11.1993 30.1881C11.2083 29.2002 10.391 28.3918 9.40305 28.3918Z" fill="#FA4A6F"/>
<path id="Vector_3" d="M32.7617 12.944C32.7617 15.9078 30.3368 18.3327 27.3731 18.3327C24.4093 18.3327 21.9844 15.9078 21.9844 12.944C21.9844 9.9802 24.4093 7.5553 27.3731 7.5553C30.3368 7.5553 32.7617 9.9802 32.7617 12.944ZM29.1693 12.953C29.1693 11.974 28.361 11.1567 27.382 11.1478C26.3941 11.1478 25.5858 11.9561 25.5768 12.935C25.5768 13.9139 26.3851 14.7402 27.3641 14.7402C28.343 14.7492 29.1693 13.9319 29.1693 12.953Z" fill="#FA4A6F"/>
</g>
</svg>
